<svg width="338" height="352" viewBox="0 0 338 352" fill="none" xmlns="http://www.w3.org/2000/svg">
<ellipse cx="169" cy="176.323" rx="169" ry="158.323" fill="#277868"/>
<path d="M186.604 97.7191C186.604 101.609 185.12 105.339 182.479 108.09C179.838 110.84 176.256 112.386 172.521 112.386C168.785 112.386 165.203 110.84 162.562 108.09C159.921 105.339 158.437 101.609 158.437 97.7191C158.437 93.8292 159.921 90.0987 162.562 87.3482C165.203 84.5976 168.785 83.0524 172.521 83.0524C176.256 83.0524 179.838 84.5976 182.479 87.3482C185.12 90.0987 186.604 93.8292 186.604 97.7191ZM161.958 138.052V211.386C161.958 214.303 163.071 217.101 165.052 219.164C167.033 221.227 169.719 222.386 172.521 222.386C175.322 222.386 178.008 221.227 179.989 219.164C181.97 217.101 183.083 214.303 183.083 211.386V138.052C183.083 135.135 181.97 132.337 179.989 130.274C178.008 128.211 175.322 127.052 172.521 127.052C169.719 127.052 167.033 128.211 165.052 130.274C163.071 132.337 161.958 135.135 161.958 138.052ZM56.333 61.0524C56.333 51.3278 60.0424 42.0015 66.6453 35.1252C73.2481 28.2488 82.2035 24.3857 91.5413 24.3857H253.5C258.123 24.3857 262.702 25.3342 266.973 27.1768C271.245 29.0195 275.126 31.7203 278.396 35.1252C281.665 38.53 284.259 42.5721 286.028 47.0207C287.797 51.4693 288.708 56.2373 288.708 61.0524V270.052C288.708 272.97 287.595 275.768 285.614 277.831C283.633 279.893 280.947 281.052 278.146 281.052H77.458C77.458 284.942 78.9418 288.673 81.5829 291.423C84.2241 294.174 87.8062 295.719 91.5413 295.719H278.146C280.947 295.719 283.633 296.878 285.614 298.941C287.595 301.004 288.708 303.802 288.708 306.719C288.708 309.636 287.595 312.434 285.614 314.497C283.633 316.56 280.947 317.719 278.146 317.719H91.5413C82.2035 317.719 73.2481 313.856 66.6453 306.98C60.0424 300.103 56.333 290.777 56.333 281.052V61.0524ZM267.583 259.052V61.0524C267.583 57.1626 266.099 53.432 263.458 50.6815C260.817 47.931 257.235 46.3857 253.5 46.3857H91.5413C87.8062 46.3857 84.2241 47.931 81.5829 50.6815C78.9418 53.432 77.458 57.1626 77.458 61.0524V259.052H267.583Z" fill="white"/>
</svg>
