<svg width="220" height="229" viewBox="0 0 220 229" fill="none" xmlns="http://www.w3.org/2000/svg">
<g clip-path="url(#clip0_376_1070)">
<path d="M121.458 66.7913C121.458 69.3219 120.492 71.7489 118.773 73.5383C117.054 75.3277 114.723 76.333 112.292 76.333C109.86 76.333 107.529 75.3277 105.81 73.5383C104.091 71.7489 103.125 69.3219 103.125 66.7913C103.125 64.2607 104.091 61.8338 105.81 60.0444C107.529 58.255 109.86 57.2497 112.292 57.2497C114.723 57.2497 117.054 58.255 118.773 60.0444C120.492 61.8338 121.458 64.2607 121.458 66.7913ZM105.417 93.0309V140.739C105.417 142.637 106.141 144.457 107.43 145.799C108.719 147.142 110.468 147.895 112.292 147.895C114.115 147.895 115.864 147.142 117.153 145.799C118.442 144.457 119.167 142.637 119.167 140.739V93.0309C119.167 91.133 118.442 89.3127 117.153 87.9707C115.864 86.6286 114.115 85.8747 112.292 85.8747C110.468 85.8747 108.719 86.6286 107.43 87.9707C106.141 89.3127 105.417 91.133 105.417 93.0309ZM36.6665 42.9372C36.6665 36.6107 39.0809 30.5433 43.3786 26.0697C47.6763 21.5962 53.5053 19.083 59.5832 19.083H165C168.009 19.083 170.989 19.7 173.77 20.8988C176.55 22.0976 179.076 23.8547 181.204 26.0697C183.332 28.2848 185.02 30.9145 186.172 33.8086C187.324 36.7027 187.917 39.8046 187.917 42.9372V178.906C187.917 180.804 187.192 182.624 185.903 183.966C184.614 185.308 182.865 186.062 181.042 186.062H50.4165C50.4165 188.593 51.3823 191.02 53.1014 192.809C54.8204 194.599 57.152 195.604 59.5832 195.604H181.042C182.865 195.604 184.614 196.358 185.903 197.7C187.192 199.042 187.917 200.862 187.917 202.76C187.917 204.658 187.192 206.478 185.903 207.82C184.614 209.162 182.865 209.916 181.042 209.916H59.5832C53.5053 209.916 47.6763 207.403 43.3786 202.93C39.0809 198.456 36.6665 192.389 36.6665 186.062V42.9372ZM174.167 171.75V42.9372C174.167 40.4066 173.201 37.9796 171.482 36.1902C169.763 34.4008 167.431 33.3955 165 33.3955H59.5832C57.152 33.3955 54.8204 34.4008 53.1014 36.1902C51.3823 37.9796 50.4165 40.4066 50.4165 42.9372V171.75H174.167Z" fill="#277868"/>
<ellipse cx="109" cy="103" rx="110" ry="103" fill="#EE5C5C" fill-opacity="0.24"/>
</g>
<defs>
<clipPath id="clip0_376_1070">
<rect width="220" height="229" fill="white"/>
</clipPath>
</defs>
</svg>
