<svg width="255" height="255" viewBox="0 0 255 255" fill="none" xmlns="http://www.w3.org/2000/svg">
<ellipse cx="131" cy="131" rx="110" ry="103" fill="#EE5C5C" fill-opacity="0.24"/>
<path d="M69.0625 86.1687C59.6062 86.1687 51.9562 78.5187 51.9562 69.0625C51.9562 64.5256 53.7585 60.1746 56.9665 56.9666C60.1746 53.7585 64.5256 51.9562 69.0625 51.9562C78.5187 51.9562 86.1687 59.6063 86.1687 69.0625C86.1687 73.5994 84.3665 77.9504 81.1584 81.1584C77.9504 84.3665 73.5994 86.1687 69.0625 86.1687ZM69.0625 21.25C42.5 21.25 21.25 42.5 21.25 69.0625C21.25 104.869 69.0625 157.887 69.0625 157.887C69.0625 157.887 116.875 104.869 116.875 69.0625C116.875 42.5 95.625 21.25 69.0625 21.25ZM185.937 86.1687C181.401 86.1687 177.05 84.3665 173.842 81.1584C170.633 77.9504 168.831 73.5994 168.831 69.0625C168.831 66.8161 169.274 64.5916 170.133 62.5162C170.993 60.4408 172.253 58.555 173.842 56.9666C175.43 55.3781 177.316 54.1181 179.391 53.2584C181.467 52.3987 183.691 51.9562 185.937 51.9562C188.184 51.9562 190.408 52.3987 192.484 53.2584C194.559 54.1181 196.445 55.3781 198.033 56.9666C199.622 58.555 200.882 60.4408 201.742 62.5162C202.601 64.5916 203.044 66.8161 203.044 69.0625C203.044 73.5994 201.241 77.9504 198.033 81.1584C194.825 84.3665 190.474 86.1687 185.937 86.1687ZM185.937 21.25C159.375 21.25 138.125 42.5 138.125 69.0625C138.125 104.869 185.937 157.887 185.937 157.887C185.937 157.887 233.75 104.869 233.75 69.0625C233.75 42.5 212.5 21.25 185.937 21.25ZM185.937 170C172.444 170 160.437 178.5 155.975 191.25H99.025C96.2096 183.298 90.3567 176.786 82.7489 173.142C75.1411 169.497 66.3987 169.017 58.4375 171.806C54.4806 173.193 50.8357 175.346 47.7112 178.142C44.5868 180.938 42.0441 184.322 40.2284 188.101C38.4128 191.881 37.3598 195.981 37.1297 200.167C36.8997 204.354 37.497 208.544 38.8875 212.5C41.741 220.473 47.6334 226.993 55.2778 230.636C62.9222 234.279 71.6975 234.749 79.6875 231.944C88.7187 228.756 95.625 221.531 99.025 212.5H156.081C161.925 229.075 180.2 237.788 196.562 231.944C200.531 230.571 204.19 228.428 207.328 225.638C210.466 222.847 213.022 219.464 214.849 215.682C216.675 211.901 217.737 207.796 217.972 203.603C218.207 199.41 217.611 195.212 216.219 191.25C211.65 178.5 199.537 170 185.937 170ZM185.937 217.812C181.711 217.812 177.657 216.133 174.668 213.145C171.679 210.156 170 206.102 170 201.875C170 197.648 171.679 193.594 174.668 190.605C177.657 187.617 181.711 185.938 185.937 185.938C190.164 185.938 194.218 187.617 197.207 190.605C200.196 193.594 201.875 197.648 201.875 201.875C201.875 206.102 200.196 210.156 197.207 213.145C194.218 216.133 190.164 217.812 185.937 217.812Z" fill="#277868"/>
</svg>
