<svg width="379" height="379" viewBox="0 0 379 379" fill="none" xmlns="http://www.w3.org/2000/svg">
<ellipse cx="194.702" cy="194.702" rx="163.49" ry="153.086" fill="#277868"/>
<path d="M102.646 128.07C88.5909 128.07 77.2209 116.7 77.2209 102.646C77.2209 95.9025 79.8996 89.4356 84.6676 84.6676C89.4356 79.8996 95.9025 77.2209 102.646 77.2209C116.7 77.2209 128.07 88.5909 128.07 102.646C128.07 109.389 125.391 115.855 120.623 120.623C115.855 125.391 109.389 128.07 102.646 128.07ZM102.646 31.583C63.1663 31.583 31.583 63.1663 31.583 102.646C31.583 155.863 102.646 234.664 102.646 234.664C102.646 234.664 173.708 155.863 173.708 102.646C173.708 63.1663 142.125 31.583 102.646 31.583ZM276.354 128.07C269.611 128.07 263.144 125.391 258.376 120.623C253.608 115.855 250.929 109.389 250.929 102.646C250.929 99.3067 251.587 96.0006 252.865 92.9159C254.142 89.8313 256.015 87.0285 258.376 84.6676C260.737 82.3067 263.54 80.434 266.624 79.1562C269.709 77.8785 273.015 77.2209 276.354 77.2209C279.693 77.2209 282.999 77.8785 286.083 79.1562C289.168 80.434 291.971 82.3067 294.332 84.6676C296.693 87.0285 298.565 89.8313 299.843 92.9159C301.121 96.0006 301.778 99.3067 301.778 102.646C301.778 109.389 299.1 115.855 294.332 120.623C289.564 125.391 283.097 128.07 276.354 128.07ZM276.354 31.583C236.875 31.583 205.291 63.1663 205.291 102.646C205.291 155.863 276.354 234.664 276.354 234.664C276.354 234.664 347.416 155.863 347.416 102.646C347.416 63.1663 315.833 31.583 276.354 31.583ZM276.354 252.666C256.298 252.666 238.454 265.3 231.821 284.25H147.178C142.994 272.431 134.295 262.752 122.987 257.336C111.68 251.919 98.6864 251.205 86.8538 255.351C80.9727 257.412 75.5555 260.611 70.9117 264.767C66.2679 268.923 62.4887 273.953 59.7902 279.57C57.0916 285.187 55.5266 291.281 55.1847 297.503C54.8427 303.725 55.7304 309.954 57.7972 315.833C62.0383 327.683 70.7959 337.373 82.1576 342.788C93.5193 348.202 106.562 348.901 118.437 344.732C131.86 339.994 142.125 329.256 147.178 315.833H231.979C240.665 340.468 267.826 353.417 292.146 344.732C298.044 342.692 303.482 339.507 308.146 335.359C312.811 331.212 316.609 326.183 319.324 320.563C322.039 314.943 323.616 308.841 323.966 302.609C324.315 296.378 323.43 290.138 321.36 284.25C314.57 265.3 296.567 252.666 276.354 252.666ZM276.354 323.729C270.072 323.729 264.047 321.233 259.604 316.791C255.162 312.349 252.666 306.324 252.666 300.041C252.666 293.759 255.162 287.734 259.604 283.292C264.047 278.849 270.072 276.354 276.354 276.354C282.636 276.354 288.661 278.849 293.103 283.292C297.546 287.734 300.041 293.759 300.041 300.041C300.041 306.324 297.546 312.349 293.103 316.791C288.661 321.233 282.636 323.729 276.354 323.729Z" fill="white"/>
</svg>
