<svg width="26" height="26" viewBox="0 0 26 26" fill="none" xmlns="http://www.w3.org/2000/svg">
<path d="M8.125 13C8.125 13.431 7.95379 13.8443 7.64905 14.149C7.3443 14.4538 6.93098 14.625 6.5 14.625C6.06902 14.625 5.6557 14.4538 5.35095 14.149C5.0462 13.8443 4.875 13.431 4.875 13C4.875 12.569 5.0462 12.1557 5.35095 11.851C5.6557 11.5462 6.06902 11.375 6.5 11.375C6.93098 11.375 7.3443 11.5462 7.64905 11.851C7.95379 12.1557 8.125 12.569 8.125 13ZM14.625 13C14.625 13.431 14.4538 13.8443 14.149 14.149C13.8443 14.4538 13.431 14.625 13 14.625C12.569 14.625 12.1557 14.4538 11.851 14.149C11.5462 13.8443 11.375 13.431 11.375 13C11.375 12.569 11.5462 12.1557 11.851 11.851C12.1557 11.5462 12.569 11.375 13 11.375C13.431 11.375 13.8443 11.5462 14.149 11.851C14.4538 12.1557 14.625 12.569 14.625 13ZM19.5 14.625C19.931 14.625 20.3443 14.4538 20.649 14.149C20.9538 13.8443 21.125 13.431 21.125 13C21.125 12.569 20.9538 12.1557 20.649 11.851C20.3443 11.5462 19.931 11.375 19.5 11.375C19.069 11.375 18.6557 11.5462 18.3509 11.851C18.0462 12.1557 17.875 12.569 17.875 13C17.875 13.431 18.0462 13.8443 18.3509 14.149C18.6557 14.4538 19.069 14.625 19.5 14.625Z" fill="white"/>
<path d="M3.51812 25.6799L3.55062 25.6734C6.52437 25.0835 8.34112 24.3051 9.18612 23.8778C10.4302 24.2096 11.7124 24.3767 13 24.375C20.1792 24.375 26 19.2822 26 13C26 6.71775 20.1792 1.625 13 1.625C5.82075 1.625 0 6.71775 0 13C0 15.86 1.20737 18.4762 3.20125 20.475C3.06176 21.7589 2.77607 23.0227 2.34975 24.2418L2.34487 24.2596C2.22372 24.6088 2.09149 24.954 1.94837 25.2948C1.82 25.597 2.06862 25.935 2.392 25.883C2.76845 25.8214 3.14387 25.7537 3.51812 25.6799ZM4.81812 20.6294C4.84089 20.3915 4.81089 20.1515 4.73028 19.9265C4.64967 19.7015 4.52042 19.4971 4.35175 19.3277C2.62925 17.5988 1.625 15.3855 1.625 13C1.625 7.813 6.5065 3.25 13 3.25C19.4935 3.25 24.375 7.813 24.375 13C24.375 18.1886 19.4935 22.75 13 22.75C11.8545 22.7517 10.7138 22.6031 9.607 22.308C9.22021 22.2044 8.80878 22.2472 8.45162 22.4282C7.82275 22.7467 6.43662 23.3545 4.17137 23.8794C4.4874 22.8185 4.70392 21.7304 4.81812 20.6294Z" fill="white"/>
</svg>
