<svg width="26" height="27" viewBox="0 0 26 27" fill="none" xmlns="http://www.w3.org/2000/svg">
<g clip-path="url(#clip0_498_456)">
<path d="M8.125 13.3099C8.125 13.7505 7.95379 14.1731 7.64905 14.4846C7.3443 14.7962 6.93098 14.9712 6.5 14.9712C6.06902 14.9712 5.6557 14.7962 5.35095 14.4846C5.0462 14.1731 4.875 13.7505 4.875 13.3099C4.875 12.8693 5.0462 12.4468 5.35095 12.1353C5.6557 11.8237 6.06902 11.6487 6.5 11.6487C6.93098 11.6487 7.3443 11.8237 7.64905 12.1353C7.95379 12.4468 8.125 12.8693 8.125 13.3099ZM14.625 13.3099C14.625 13.7505 14.4538 14.1731 14.149 14.4846C13.8443 14.7962 13.431 14.9712 13 14.9712C12.569 14.9712 12.1557 14.7962 11.851 14.4846C11.5462 14.1731 11.375 13.7505 11.375 13.3099C11.375 12.8693 11.5462 12.4468 11.851 12.1353C12.1557 11.8237 12.569 11.6487 13 11.6487C13.431 11.6487 13.8443 11.8237 14.149 12.1353C14.4538 12.4468 14.625 12.8693 14.625 13.3099ZM19.5 14.9712C19.931 14.9712 20.3443 14.7962 20.649 14.4846C20.9538 14.1731 21.125 13.7505 21.125 13.3099C21.125 12.8693 20.9538 12.4468 20.649 12.1353C20.3443 11.8237 19.931 11.6487 19.5 11.6487C19.069 11.6487 18.6557 11.8237 18.351 12.1353C18.0462 12.4468 17.875 12.8693 17.875 13.3099C17.875 13.7505 18.0462 14.1731 18.351 14.4846C18.6557 14.7962 19.069 14.9712 19.5 14.9712Z" fill="#277868"/>
<path d="M3.51813 26.2726L3.55062 26.266C6.52437 25.6629 8.34112 24.8672 9.18612 24.4303C10.4302 24.7695 11.7124 24.9404 13 24.9386C20.1793 24.9386 26 19.7323 26 13.3099C26 6.88751 20.1793 1.68115 13 1.68115C5.82075 1.68115 0 6.88751 0 13.3099C0 16.2337 1.20738 18.9083 3.20125 20.9516C3.06176 22.2642 2.77607 23.5561 2.34975 24.8024L2.34487 24.8207C2.22372 25.1776 2.09149 25.5305 1.94837 25.8789C1.82 26.1879 2.06862 26.5334 2.392 26.4803C2.76845 26.4173 3.14387 26.3481 3.51813 26.2726ZM4.81812 21.1095C4.84089 20.8662 4.81089 20.6209 4.73028 20.3909C4.64967 20.1609 4.52042 19.9519 4.35175 19.7788C2.62925 18.0112 1.625 15.7486 1.625 13.3099C1.625 8.00719 6.5065 3.3424 13 3.3424C19.4935 3.3424 24.375 8.00719 24.375 13.3099C24.375 18.6143 19.4935 23.2774 13 23.2774C11.8545 23.2791 10.7138 23.1272 9.607 22.8255C9.22021 22.7196 8.80878 22.7633 8.45163 22.9485C7.82275 23.2741 6.43663 23.8954 4.17137 24.432C4.4874 23.3474 4.70392 22.2351 4.81812 21.1095Z" fill="#277868"/>
</g>
<defs>
<clipPath id="clip0_498_456">
<rect width="26" height="26.58" fill="white" transform="translate(0 0.0200195)"/>
</clipPath>
</defs>
</svg>
