<svg width="24" height="24" viewBox="0 0 24 24" fill="none" xmlns="http://www.w3.org/2000/svg">
<path d="M4.44444 23.999H21.5555C22.2038 23.999 22.8256 23.7672 23.284 23.3547C23.7424 22.9421 24 22.3826 24 21.7991V11.8995C24.0009 11.7547 23.9701 11.6112 23.9093 11.4772C23.8484 11.3432 23.7588 11.2213 23.6455 11.1185L13.8678 2.31888C13.6388 2.11401 13.329 1.99902 13.0061 1.99902C12.6832 1.99902 12.3734 2.11401 12.1444 2.31888L2.36667 11.1185C2.25118 11.2204 2.15931 11.3419 2.09637 11.4759C2.03343 11.61 2.00067 11.754 2 11.8995V21.7991C2 22.3826 2.25754 22.9421 2.71596 23.3547C3.17438 23.7672 3.79614 23.999 4.44444 23.999ZM10.5555 21.7991V16.2993H15.4444V21.7991H10.5555ZM4.44444 12.3505L13 4.65079L21.5555 12.3505V21.7991H17.8889V16.2993C17.8889 15.7159 17.6313 15.1563 17.1729 14.7438C16.7145 14.3312 16.0927 14.0994 15.4444 14.0994H10.5555C9.90724 14.0994 9.28549 14.3312 8.82707 14.7438C8.36864 15.1563 8.1111 15.7159 8.1111 16.2993V21.7991H4.44444V12.3505Z" fill="black" fill-opacity="0.5"/>
</svg>
