<svg width="21" height="22" viewBox="0 0 21 22" fill="none" xmlns="http://www.w3.org/2000/svg">
<path d="M4.10513 6.50311C4.10513 5.66423 4.43837 4.8597 5.03156 4.26652C5.62474 3.67333 6.42927 3.34009 7.26815 3.34009H13.5942C14.4331 3.34009 15.2376 3.67333 15.8308 4.26652C16.424 4.8597 16.7572 5.66423 16.7572 6.50311V8.46419C17.4717 8.61002 18.1138 8.99822 18.5749 9.56309C19.036 10.1279 19.2878 10.8348 19.2876 11.564V17.89C19.2876 18.0578 19.221 18.2187 19.1024 18.3373C18.9837 18.456 18.8228 18.5226 18.655 18.5226C18.4873 18.5226 18.3264 18.456 18.2077 18.3373C18.0891 18.2187 18.0224 18.0578 18.0224 17.89V14.727H2.83992V17.89C2.83992 18.0578 2.77327 18.2187 2.65463 18.3373C2.536 18.456 2.37509 18.5226 2.20731 18.5226C2.03953 18.5226 1.87863 18.456 1.75999 18.3373C1.64136 18.2187 1.57471 18.0578 1.57471 17.89V11.564C1.57456 10.8348 1.82635 10.1279 2.28746 9.56309C2.74857 8.99822 3.39069 8.61002 4.10513 8.46419V6.50311ZM2.83992 13.4618H18.0224V11.564C18.0224 11.0606 17.8225 10.5779 17.4666 10.222C17.1107 9.86609 16.628 9.66614 16.1246 9.66614H4.73773C4.2344 9.66614 3.75168 9.86609 3.39577 10.222C3.03987 10.5779 2.83992 11.0606 2.83992 11.564V13.4618ZM15.492 6.50311C15.492 5.99978 15.2921 5.51706 14.9362 5.16116C14.5803 4.80525 14.0975 4.6053 13.5942 4.6053H7.26815C6.76482 4.6053 6.2821 4.80525 5.92619 5.16116C5.57029 5.51706 5.37034 5.99978 5.37034 6.50311V8.40093H6.63555V7.76832C6.63555 7.60055 6.7022 7.43964 6.82083 7.321C6.93947 7.20237 7.10038 7.13572 7.26815 7.13572H9.16597C9.33375 7.13572 9.49465 7.20237 9.61329 7.321C9.73192 7.43964 9.79857 7.60055 9.79857 7.76832V8.40093H11.0638V7.76832C11.0638 7.60055 11.1304 7.43964 11.2491 7.321C11.3677 7.20237 11.5286 7.13572 11.6964 7.13572H13.5942C13.762 7.13572 13.9229 7.20237 14.0415 7.321C14.1602 7.43964 14.2268 7.60055 14.2268 7.76832V8.40093H15.492V6.50311Z" fill="#10705E"/>
</svg>
