<svg width="21" height="20" viewBox="0 0 21 20" fill="none" xmlns="http://www.w3.org/2000/svg">
<path d="M18.5757 10.6277H4.00049V3.79561C3.99979 3.53832 4.05013 3.28344 4.14859 3.04573C4.24705 2.80803 4.39169 2.59221 4.57413 2.41078L4.58931 2.39559C4.87522 2.1101 5.2423 1.91984 5.6404 1.85081C6.0385 1.78177 6.44821 1.83733 6.81355 2.00988C6.46851 2.58355 6.3251 3.25608 6.4061 3.92059C6.4871 4.58511 6.78786 5.2035 7.2606 5.67749L7.67626 6.09315L6.91117 6.85827L7.76997 7.71707L8.53506 6.95198L12.7744 2.71276L13.5394 1.94767L12.6806 1.08883L11.9155 1.85392L11.4998 1.43826C11.0022 0.941992 10.3462 0.636075 9.64611 0.573817C8.94606 0.511559 8.24636 0.696908 7.66893 1.09756C7.06004 0.713034 6.33847 0.547029 5.62276 0.626821C4.90705 0.706613 4.23976 1.02746 3.73051 1.53664L3.71533 1.55182C3.41974 1.84579 3.18539 2.19547 3.02586 2.58062C2.86632 2.96577 2.78476 3.37873 2.78589 3.79561V10.6277H1.57129V11.8423H2.78589V13.0076C2.78586 13.1055 2.80166 13.2028 2.83265 13.2957L3.96254 16.6852C4.02283 16.8666 4.13878 17.0245 4.2939 17.1363C4.44902 17.2481 4.63543 17.3082 4.82665 17.3081H5.31629L4.87349 18.8263H6.13868L6.58152 17.3081H14.4802L14.9357 18.8263H16.2034L15.748 17.3081H16.5348C16.7261 17.3082 16.9125 17.2482 17.0676 17.1363C17.2228 17.0245 17.3388 16.8666 17.3991 16.6852L18.5289 13.2957C18.5599 13.2028 18.5757 13.1055 18.5757 13.0076V11.8423H19.7903V10.6277H18.5757ZM8.11951 2.2971C8.45413 1.9632 8.90754 1.77569 9.38025 1.77569C9.85296 1.77569 10.3064 1.9632 10.641 2.2971L11.0566 2.71276L8.53517 5.23416L8.11951 4.81857C7.78564 4.48394 7.59813 4.03054 7.59813 3.55783C7.59813 3.08513 7.78564 2.63173 8.11951 2.2971ZM17.3611 12.9583L16.3161 16.0935H5.04551L4.00049 12.9583V11.8423H17.3611V12.9583Z" fill="#10705E"/>
</svg>
