<svg width="19" height="25" viewBox="0 0 19 25" fill="none" xmlns="http://www.w3.org/2000/svg">
<path d="M5.131 0.995655L4.09135 1.30886C3.16564 1.58802 2.33894 2.12582 1.70856 2.85896C1.07817 3.5921 0.670337 4.49006 0.533055 5.44716C0.102405 8.44576 1.0652 11.9519 3.38665 15.9727C5.7023 19.9834 8.25141 22.5673 11.0572 23.6983C11.9587 24.0616 12.9455 24.1585 13.9005 23.9772C14.8554 23.796 15.7382 23.3444 16.4439 22.6761L17.2298 21.9308C17.7401 21.4478 18.0577 20.7959 18.1236 20.0964C18.1895 19.3968 17.9991 18.6972 17.588 18.1274L15.6218 15.4014C15.3559 15.0334 14.9816 14.7578 14.5513 14.6132C14.1209 14.4686 13.6561 14.4623 13.222 14.5952L10.2481 15.5044L10.1712 15.5189C9.8435 15.5667 9.0866 14.8577 8.1441 13.225C7.1581 11.5169 6.9551 10.5178 7.22625 10.2597L8.73861 8.84886C9.29165 8.33333 9.66944 7.6576 9.81897 6.91647C9.96849 6.17534 9.88226 5.40599 9.57235 4.71636L8.61245 2.58341C8.32381 1.94155 7.81161 1.42656 7.17134 1.13444C6.53107 0.842313 5.80496 0.792987 5.131 0.995655ZM7.2915 3.17791L8.2485 5.31086C8.43488 5.72444 8.487 6.18603 8.39753 6.63076C8.30807 7.07549 8.08151 7.48101 7.7497 7.79036L6.23301 9.20266C5.26295 10.122 5.58485 11.6909 6.88985 13.95C8.11655 16.0757 9.23595 17.1255 10.4395 16.9428L10.6193 16.9051L13.6469 15.9814C13.7916 15.937 13.9466 15.9389 14.0901 15.987C14.2337 16.0351 14.3586 16.127 14.4473 16.2497L16.4135 18.9757C16.6193 19.2605 16.7148 19.6105 16.6819 19.9604C16.6491 20.3103 16.4903 20.6364 16.2351 20.8781L15.4478 21.6234C14.9437 22.1004 14.3132 22.4228 13.6313 22.5521C12.9494 22.6814 12.2447 22.6122 11.6009 22.3527C9.13881 21.3609 6.81155 19.0018 4.6438 15.2477C2.47025 11.485 1.5901 8.28481 1.96855 5.65306C2.06652 4.96928 2.35781 4.32773 2.80813 3.80394C3.25845 3.28014 3.84906 2.89592 4.5104 2.69651L5.55005 2.38331C5.88712 2.28202 6.24952 2.30679 6.56967 2.45299C6.88981 2.59919 7.14586 2.85685 7.29005 3.17791H7.2915Z" fill="#10705E"/>
</svg>
