<svg width="22" height="22" viewBox="0 0 22 22" fill="none" xmlns="http://www.w3.org/2000/svg">
<path d="M19.5585 9.17536L15.8465 8.60348L13.5844 4.90808C13.4657 4.71466 13.299 4.55516 13.1006 4.44501C12.9022 4.33486 12.6786 4.27779 12.4517 4.27933L2.97129 4.35486C2.69775 4.35717 2.43172 4.44463 2.21017 4.60509C1.98862 4.76554 1.82255 4.99102 1.73504 5.2502L0.657715 8.4448V15.7897H2.91952C3.09536 16.3613 3.44979 16.8614 3.9308 17.2167C4.41181 17.572 4.99405 17.7637 5.59203 17.7637C6.19002 17.7637 6.77226 17.572 7.25327 17.2167C7.73428 16.8614 8.08871 16.3613 8.26454 15.7897H12.4592C12.635 16.3613 12.9895 16.8614 13.4705 17.2167C13.9515 17.572 14.5337 17.7637 15.1317 17.7637C15.7297 17.7637 16.3119 17.572 16.793 17.2167C17.274 16.8614 17.6284 16.3613 17.8042 15.7897H20.395V10.1507C20.3961 9.91474 20.3121 9.68627 20.1585 9.50715C20.0049 9.32803 19.7918 9.21025 19.5585 9.17536ZM9.21054 5.62093L12.4622 5.59502L14.2755 8.55755L9.21054 8.55578V5.62093ZM2.98182 5.6706L7.89472 5.63145V8.55533L2.00976 8.55323L2.98182 5.6706ZM5.59203 16.4476C5.29926 16.4476 5.01306 16.3608 4.76963 16.1982C4.52619 16.0355 4.33646 15.8043 4.22442 15.5338C4.11238 15.2633 4.08306 14.9657 4.14018 14.6786C4.1973 14.3914 4.33828 14.1276 4.54531 13.9206C4.75233 13.7136 5.01609 13.5726 5.30324 13.5155C5.59039 13.4584 5.88803 13.4877 6.15852 13.5997C6.42901 13.7118 6.6602 13.9015 6.82286 14.1449C6.98551 14.3884 7.07233 14.6746 7.07233 14.9674C7.0719 15.3598 6.9158 15.7361 6.63828 16.0136C6.36077 16.2911 5.9845 16.4472 5.59203 16.4476ZM15.1317 16.4476C14.8389 16.4476 14.5527 16.3608 14.3093 16.1982C14.0659 16.0355 13.8761 15.8043 13.7641 15.5338C13.6521 15.2633 13.6227 14.9657 13.6799 14.6786C13.737 14.3914 13.878 14.1276 14.085 13.9206C14.292 13.7136 14.5558 13.5726 14.8429 13.5155C15.1301 13.4584 15.4277 13.4877 15.6982 13.5997C15.9687 13.7118 16.1999 13.9015 16.3625 14.1449C16.5252 14.3884 16.612 14.6746 16.612 14.9674C16.6116 15.3598 16.4555 15.7361 16.178 16.0136C15.9005 16.2911 15.5242 16.4472 15.1317 16.4476ZM19.0792 14.4739H17.8833C17.7677 13.8282 17.4288 13.2438 16.9257 12.8228C16.4227 12.4018 15.7877 12.1712 15.1317 12.1712C14.4758 12.1712 13.8407 12.4018 13.3377 12.8228C12.8347 13.2438 12.4957 13.8282 12.3801 14.4739H8.34366C8.22806 13.8282 7.88909 13.2438 7.38606 12.8228C6.88302 12.4018 6.24797 12.1712 5.59203 12.1712C4.93609 12.1712 4.30104 12.4018 3.79801 12.8228C3.29498 13.2438 2.95601 13.8282 2.84041 14.4739H1.97353V9.86962L15.5645 9.89138L19.0792 10.4329V14.4739Z" fill="#10705E"/>
</svg>
