<svg width="20" height="20" viewBox="0 0 20 20" fill="none" xmlns="http://www.w3.org/2000/svg">
<path d="M15.8232 1.6767L18.3232 4.1767L16.4173 6.08336L13.9173 3.58336L15.8232 1.6767ZM6.6665 13.3334H9.1665L15.239 7.26086L12.739 4.76086L6.6665 10.8334V13.3334Z" fill="#277868"/>
<path d="M15.8333 15.8333H6.79833C6.77667 15.8333 6.75417 15.8417 6.7325 15.8417C6.705 15.8417 6.6775 15.8342 6.64917 15.8333H4.16667V4.16667H9.8725L11.5392 2.5H4.16667C3.2475 2.5 2.5 3.24667 2.5 4.16667V15.8333C2.5 16.7533 3.2475 17.5 4.16667 17.5H15.8333C16.2754 17.5 16.6993 17.3244 17.0118 17.0118C17.3244 16.6993 17.5 16.2754 17.5 15.8333V8.61L15.8333 10.2767V15.8333Z" fill="#277868"/>
</svg>
