<svg width="256" height="256" viewBox="0 0 256 256" fill="none" xmlns="http://www.w3.org/2000/svg">
<path d="M208 32H48C43.7565 32 39.6869 33.6857 36.6863 36.6863C33.6857 39.6869 32 43.7565 32 48V208C32 212.243 33.6857 216.313 36.6863 219.314C39.6869 222.314 43.7565 224 48 224H208C212.243 224 216.313 222.314 219.314 219.314C222.314 216.313 224 212.243 224 208V48C224 43.7565 222.314 39.6869 219.314 36.6863C216.313 33.6857 212.243 32 208 32ZM128.57 189.66L123.11 195.11C114.822 203.182 103.689 207.665 92.12 207.589C80.5511 207.513 69.4777 202.884 61.2971 194.703C53.1164 186.522 48.4869 175.449 48.4107 163.88C48.3345 152.311 52.8178 141.178 60.89 132.89L84.89 108.89C92.0951 101.704 101.565 97.2316 111.692 96.2328C121.819 95.2339 131.98 97.7698 140.45 103.41C142.214 104.59 143.436 106.423 143.849 108.504C144.261 110.586 143.83 112.746 142.65 114.51C141.47 116.274 139.637 117.496 137.556 117.909C135.474 118.321 133.314 117.89 131.55 116.71C126.163 113.113 119.696 111.495 113.251 112.132C106.805 112.768 100.779 115.619 96.2 120.2L72.2 144.2C66.9487 149.451 63.9986 156.574 63.9986 164C63.9986 167.677 64.7228 171.318 66.1301 174.716C67.5373 178.113 69.5998 181.2 72.2 183.8C74.8002 186.4 77.887 188.463 81.2843 189.87C84.6816 191.277 88.3228 192.001 92 192.001C99.4264 192.001 106.549 189.051 111.8 183.8L117.25 178.34C118.751 176.839 120.787 175.996 122.91 175.996C125.033 175.996 127.069 176.839 128.57 178.34C130.071 179.841 130.914 181.877 130.914 184C130.914 186.123 130.071 188.159 128.57 189.66ZM195.11 123.11L171.11 147.11C163.905 154.296 154.435 158.768 144.308 159.767C134.181 160.766 124.02 158.23 115.55 152.59C113.786 151.41 112.564 149.577 112.151 147.496C111.739 145.414 112.17 143.254 113.35 141.49C114.53 139.726 116.363 138.504 118.444 138.091C120.526 137.679 122.686 138.11 124.45 139.29C129.84 142.876 136.305 144.487 142.748 143.851C149.19 143.215 155.215 140.37 159.8 135.8L183.8 111.8C189.051 106.549 192.001 99.4264 192.001 92C192.001 84.5736 189.051 77.4513 183.8 72.2C178.549 66.9487 171.426 63.9986 164 63.9986C156.574 63.9986 149.451 66.9487 144.2 72.2L138.75 77.66C137.249 79.1611 135.213 80.0044 133.09 80.0044C130.967 80.0044 128.931 79.1611 127.43 77.66C125.929 76.1589 125.086 74.1229 125.086 72C125.086 69.8771 125.929 67.8411 127.43 66.34L132.89 60.89C141.178 52.8178 152.311 48.3345 163.88 48.4107C175.449 48.4869 186.522 53.1164 194.703 61.2971C202.884 69.4777 207.513 80.5511 207.589 92.12C207.665 103.689 203.182 114.822 195.11 123.11Z" fill="black"/>
</svg>
