<svg width="28" height="22" viewBox="0 0 28 22" fill="none" xmlns="http://www.w3.org/2000/svg">
<g clip-path="url(#clip0_428_821)">
<path d="M22.4398 8.25C21.7879 8.2457 21.1667 8.34883 20.5848 8.54648L19.1454 6.1875H22.7504C23.3323 6.1875 23.8004 5.72773 23.8004 5.15625V3.78125C23.8004 3.20977 23.3323 2.75 22.7504 2.75H20.7686C20.4711 2.75 20.1867 2.87461 19.9898 3.08945L18.3492 4.88125L17.3517 3.24844C17.1592 2.93906 16.8179 2.75 16.4504 2.75H12.9504C12.5654 2.75 12.2504 3.05937 12.2504 3.4375V4.125C12.2504 4.50312 12.5654 4.8125 12.9504 4.8125H15.8554L16.6954 6.1875H9.97107C9.19669 5.19492 8.00669 4.46875 5.60044 4.46875H3.17232C2.58169 4.46875 2.08732 4.94141 2.10044 5.52148C2.10919 6.08008 2.57732 6.53125 3.15044 6.53125H5.60044C6.67232 6.53125 7.29357 6.99961 7.69169 7.59688L7.19732 8.47773C6.62857 8.31016 6.02044 8.23281 5.39044 8.2543C2.44606 8.35742 0.0704401 10.725 0.0004401 13.6211C-0.0695599 16.7191 2.46357 19.25 5.60044 19.25C8.20794 19.25 10.3998 17.4969 11.0254 15.125H14.7092C15.3086 15.125 15.7854 14.6352 15.7592 14.0465C15.6673 12.0227 16.5248 10.0203 18.2179 8.67539L18.7648 9.56914C17.5573 10.5875 16.7917 12.1 16.8048 13.7887C16.8267 16.7793 19.3073 19.2242 22.3523 19.25C25.4848 19.2801 28.0311 16.7793 28.0048 13.7027C27.9742 10.7121 25.4848 8.27148 22.4398 8.25ZM5.60044 17.1875C3.67107 17.1875 2.10044 15.6449 2.10044 13.75C2.10044 11.8551 3.67107 10.3125 5.60044 10.3125C5.78419 10.3125 5.96794 10.3254 6.14732 10.3555L4.33169 13.5953C3.94669 14.2828 4.45419 15.125 5.25044 15.125H8.80732C8.26482 16.3367 7.03107 17.1875 5.60044 17.1875ZM25.8961 13.9391C25.7998 15.6836 24.3648 17.093 22.5929 17.1832C20.5761 17.2906 18.9004 15.7094 18.9004 13.75C18.9004 12.8305 19.2679 11.9969 19.8673 11.3824L22.0286 14.923C22.2254 15.2496 22.6586 15.3527 22.9911 15.1594L23.5904 14.807C23.9229 14.6137 24.0279 14.1883 23.8311 13.8617L21.7048 10.3855C21.9323 10.3383 22.1642 10.3168 22.4004 10.3168C24.3954 10.3125 26.0011 11.9582 25.8961 13.9391Z" fill="black"/>
</g>
<defs>
<clipPath id="clip0_428_821">
<rect width="28" height="22" fill="white"/>
</clipPath>
</defs>
</svg>
