<svg width="32" height="32" viewBox="0 0 32 32" fill="none" xmlns="http://www.w3.org/2000/svg">
<path d="M13 19H11C10.45 19 10 18.55 10 18C10 17.45 10.45 17 11 17H13C13.55 17 14 17.45 14 18C14 18.56 13.56 19 13 19ZM18 19H16C15.45 19 15 18.55 15 18C15 17.45 15.45 17 16 17H18C18.55 17 19 17.45 19 18C19 18.56 18.56 19 18 19ZM18.5 8H10.5C10.22 8 10 7.78 10 7.5C10 7.22 10.22 7 10.5 7H18.5C18.78 7 19 7.22 19 7.5C19 7.78 18.78 8 18.5 8Z" fill="black"/>
<path d="M8.00024 4C8.00024 3.449 8.44024 3 8.98024 3H20.0202C20.5602 3 21.0002 3.449 21.0002 4H21.0612C22.1312 4 23.0002 4.85 23.0002 5.91V18.99C23.0002 20.767 21.8352 22.268 20.2162 22.797L21.0642 24.063C21.8362 25.215 22.6422 26.417 22.7962 26.665C23.1342 27.204 23.1142 27.599 22.8642 27.926C22.6142 28.253 22.2282 28.273 21.9102 28.273H7.07824C6.90824 28.274 6.32724 28.279 6.06024 27.82C5.81424 27.395 6.04024 27.023 6.22224 26.722L6.29224 26.607C6.35624 26.494 6.87024 25.763 7.47724 24.901C7.95924 24.216 8.49924 23.448 8.92024 22.839C8.8992 22.8328 8.8782 22.8265 8.85724 22.82C7.20124 22.314 6.00024 20.794 6.00024 18.99V5.91C6.00024 4.85 6.86024 4 7.92924 4H8.00024ZM8.00024 16V18.55C8.00024 19.9 9.10024 21 10.4502 21H18.5502C19.9002 21 21.0002 19.9 21.0002 18.55V16H8.00024ZM8.00024 15H21.0002V10H8.00024V15ZM21.0002 8.45C21.0002 7.1 19.9002 6 18.5502 6H10.4502C9.10024 6 8.00024 7.1 8.00024 8.45V8.986H21.0002V8.45ZM9.30924 24.996H19.6782C19.6595 24.9643 19.6418 24.9319 19.6252 24.899C19.554 24.758 19.4749 24.6211 19.3882 24.489C19.2052 24.22 18.9102 23.989 18.5152 23.989H10.4992C10.0462 23.989 9.69124 24.365 9.61424 24.489C9.55224 24.59 9.37024 24.893 9.30924 24.996ZM8.00624 26.986H21.0142C20.9442 26.878 20.6462 26.429 20.5692 26.314C20.4292 26.104 20.1162 25.986 19.9042 25.986H9.35624C8.90324 25.986 8.39224 26.409 8.28624 26.582C8.19827 26.7206 8.10486 26.8557 8.00624 26.987V26.986Z" fill="black"/>
<path d="M24.9998 6.98C24.9998 6.44 25.4398 6 25.9798 6H29.0198C29.5598 6 29.9998 6.44 29.9998 6.98V12.02C29.9998 12.56 29.5598 13 29.0198 13H27.9998V20.004L29.9998 20V29L23.4198 22.45C22.5198 21.55 23.1598 20.01 24.4298 20.01L26.9998 20.005V13H25.9798C25.4398 13 24.9998 12.56 24.9998 12.02V6.98ZM28.9998 9H25.9998V12H28.9998V9ZM24.4298 21.01C24.3453 21.0106 24.2628 21.0361 24.1927 21.0833C24.1225 21.1306 24.0679 21.1974 24.0356 21.2755C24.0032 21.3536 23.9946 21.4395 24.0109 21.5225C24.0271 21.6055 24.0674 21.6818 24.1268 21.742L28.9998 26.593V21.002L24.4298 21.01Z" fill="black"/>
</svg>
