<svg width="28" height="28" viewBox="0 0 28 28" fill="none" xmlns="http://www.w3.org/2000/svg">
<g clip-path="url(#clip0_809_306)">
<path d="M0.597519 13.8324C0.596863 16.185 1.21636 18.4821 2.39433 20.5067L0.484863 27.4245L7.61961 25.5682C9.59299 26.6342 11.804 27.1927 14.0509 27.1929H14.0568C21.474 27.1929 27.5119 21.204 27.515 13.843C27.5165 10.276 26.1178 6.92185 23.5766 4.39838C21.0358 1.87512 17.6566 0.484782 14.0562 0.483154C6.63808 0.483154 0.600691 6.47168 0.597629 13.8324" fill="url(#paint0_linear_809_306)"/>
<path d="M0.117031 13.8281C0.116266 16.2653 0.757969 18.6445 1.97794 20.7417L0 27.9074L7.39058 25.9847C9.42692 27.0863 11.7196 27.6671 14.0526 27.668H14.0586C21.742 27.668 27.9967 21.4637 28 13.8392C28.0013 10.144 26.5523 6.66932 23.9203 4.05544C21.288 1.44189 17.788 0.00151938 14.0586 0C6.37394 0 0.120094 6.20341 0.117031 13.8281ZM4.51828 20.3805L4.24233 19.9459C3.0823 18.1157 2.47002 16.0007 2.47089 13.829C2.47341 7.49152 7.67134 2.3355 14.063 2.3355C17.1583 2.33681 20.0672 3.53408 22.2552 5.70636C24.443 7.87885 25.6469 10.7668 25.6461 13.8383C25.6433 20.1757 20.4452 25.3324 14.0586 25.3324H14.054C11.9745 25.3313 9.93497 24.7772 8.15631 23.73L7.73303 23.4809L3.34731 24.6219L4.51828 20.3804V20.3805Z" fill="url(#paint1_linear_809_306)"/>
<path d="M10.5741 8.04704C10.3132 7.47152 10.0385 7.45991 9.79036 7.44981C9.58714 7.44113 9.35483 7.44178 9.12273 7.44178C8.89042 7.44178 8.51297 7.5285 8.19392 7.87416C7.87455 8.22014 6.97461 9.05623 6.97461 10.7567C6.97461 12.4574 8.22291 14.1008 8.39692 14.3316C8.57116 14.562 10.8068 18.1634 14.3475 19.5489C17.2901 20.7002 17.8889 20.4712 18.5276 20.4135C19.1663 20.356 20.5886 19.5776 20.8788 18.7705C21.1692 17.9635 21.1692 17.2717 21.0821 17.1272C20.9951 16.9832 20.7627 16.8967 20.4144 16.7239C20.0659 16.551 18.3533 15.7148 18.0341 15.5994C17.7147 15.4842 17.4825 15.4267 17.2502 15.7728C17.0179 16.1183 16.3508 16.8967 16.1475 17.1272C15.9443 17.3582 15.741 17.387 15.3928 17.2141C15.0442 17.0407 13.9223 16.6761 12.5913 15.4987C11.5558 14.5825 10.8567 13.4511 10.6534 13.1051C10.4502 12.7595 10.6317 12.5722 10.8063 12.4C10.9629 12.2451 11.1548 11.9963 11.3292 11.7946C11.5028 11.5927 11.5608 11.4487 11.677 11.2182C11.7932 10.9875 11.735 10.7856 11.6481 10.6127C11.5608 10.4398 10.8839 8.73044 10.5741 8.04704Z" fill="white"/>
</g>
<defs>
<linearGradient id="paint0_linear_809_306" x1="1351.99" y1="2694.62" x2="1351.99" y2="0.483154" gradientUnits="userSpaceOnUse">
<stop stop-color="#1FAF38"/>
<stop offset="1" stop-color="#60D669"/>
</linearGradient>
<linearGradient id="paint1_linear_809_306" x1="1400" y1="2790.74" x2="1400" y2="0" gradientUnits="userSpaceOnUse">
<stop stop-color="#F9F9F9"/>
<stop offset="1" stop-color="white"/>
</linearGradient>
<clipPath id="clip0_809_306">
<rect width="28" height="28" fill="white"/>
</clipPath>
</defs>
</svg>
