<svg width="43" height="43" viewBox="0 0 43 43" fill="none" xmlns="http://www.w3.org/2000/svg">
<path d="M34.0418 16.125C34.0426 13.9659 33.486 11.8431 32.4258 9.96219C31.3656 8.08127 29.8378 6.5059 27.9903 5.38858C26.1427 4.27127 24.038 3.64985 21.8798 3.58448C19.7217 3.51912 17.5832 4.01202 15.6714 5.01548C13.7597 6.01893 12.1393 7.49895 10.9672 9.31226C9.79517 11.1256 9.11108 13.2108 8.98121 15.366C8.85133 17.5212 9.28006 19.6735 10.2259 21.6144C11.1717 23.5554 12.6026 25.2193 14.3801 26.445L8.9585 35.8334L13.0005 36L15.1648 39.4167L21.3747 28.6595C21.4177 28.6595 21.4572 28.6667 21.5002 28.6667C21.5432 28.6667 21.5826 28.6613 21.6256 28.6595L27.8355 39.4167L30.0428 36.0734L34.0418 35.8334L28.6202 26.445C30.293 25.2933 31.6605 23.7521 32.605 21.9543C33.5495 20.1564 34.0426 18.1559 34.0418 16.125ZM12.5418 16.125C12.5418 14.3532 13.0672 12.6212 14.0516 11.148C15.0359 9.67485 16.435 8.52664 18.072 7.8486C19.7089 7.17057 21.5101 6.99316 23.2478 7.33882C24.9856 7.68448 26.5818 8.53768 27.8347 9.79053C29.0875 11.0434 29.9407 12.6396 30.2864 14.3773C30.632 16.1151 30.4546 17.9163 29.7766 19.5532C29.0986 21.1901 27.9503 22.5893 26.4771 23.5736C25.004 24.558 23.272 25.0834 21.5002 25.0834C19.1243 25.0834 16.8457 24.1395 15.1657 22.4595C13.4857 20.7795 12.5418 18.5009 12.5418 16.125Z" fill="#277868"/>
<path d="M21.5 21.5C24.4685 21.5 26.875 19.0935 26.875 16.125C26.875 13.1565 24.4685 10.75 21.5 10.75C18.5315 10.75 16.125 13.1565 16.125 16.125C16.125 19.0935 18.5315 21.5 21.5 21.5Z" fill="#277868"/>
</svg>
