<svg width="39" height="39" viewBox="0 0 39 39" fill="none" xmlns="http://www.w3.org/2000/svg">
<path d="M26.8125 8.9375C27.6745 8.9375 28.5011 8.59509 29.1106 7.9856C29.7201 7.3761 30.0625 6.54945 30.0625 5.6875C30.0625 4.82555 29.7201 3.9989 29.1106 3.3894C28.5011 2.77991 27.6745 2.4375 26.8125 2.4375C25.9505 2.4375 25.1239 2.77991 24.5144 3.3894C23.9049 3.9989 23.5625 4.82555 23.5625 5.6875C23.5625 6.54945 23.9049 7.3761 24.5144 7.9856C25.1239 8.59509 25.9505 8.9375 26.8125 8.9375ZM20.9625 31.525L22.5875 24.375L26 27.625V37.375H29.25V25.1875L25.8375 21.9375L26.8125 17.0625C27.9258 18.3385 29.2995 19.3613 30.8411 20.062C32.3828 20.7628 34.0566 21.1252 35.75 21.125V17.875C32.89 17.9237 30.225 16.4288 28.7625 13.975L27.1375 11.375C26.5525 10.4 25.5125 9.75 24.375 9.75C23.8875 9.75 23.5625 9.9125 23.075 9.9125L14.625 13.4875V21.125H17.875V15.6L20.8 14.4625L18.2 27.625L10.2375 26L9.5875 29.25L20.9625 31.525ZM6.5 14.625C6.06902 14.625 5.6557 14.4538 5.35095 14.149C5.0462 13.8443 4.875 13.431 4.875 13C4.875 12.569 5.0462 12.1557 5.35095 11.851C5.6557 11.5462 6.06902 11.375 6.5 11.375H11.375V14.625H6.5ZM8.125 8.125C7.69402 8.125 7.2807 7.95379 6.97595 7.64905C6.67121 7.3443 6.5 6.93098 6.5 6.5C6.5 6.06902 6.67121 5.6557 6.97595 5.35095C7.2807 5.0462 7.69402 4.875 8.125 4.875H16.25V8.125H8.125ZM4.875 21.125C4.44402 21.125 4.0307 20.9538 3.72595 20.649C3.4212 20.3443 3.25 19.931 3.25 19.5C3.25 19.069 3.4212 18.6557 3.72595 18.351C4.0307 18.0462 4.44402 17.875 4.875 17.875H11.375V21.125H4.875Z" fill="#277868"/>
</svg>
