<svg width="49" height="49" viewBox="0 0 49 49" fill="none" xmlns="http://www.w3.org/2000/svg">
<path d="M24.5 3.0625L6.125 9.1875V27.5625C6.125 37.7118 14.3507 45.9375 24.5 45.9375C34.6493 45.9375 42.875 37.7118 42.875 27.5625V9.1875L24.5 3.0625ZM39.4297 27.5625C39.4297 35.8073 32.7448 42.4922 24.5 42.4922C16.2552 42.4922 9.57031 35.8073 9.57031 27.5625V11.7715L24.5 6.50781L39.4297 11.7715V27.5625Z" fill="#277868"/>
<path d="M18.1072 22.7343C17.9476 22.5739 17.7578 22.4466 17.5488 22.3598C17.3398 22.2729 17.1157 22.2282 16.8894 22.2282C16.6631 22.2282 16.439 22.2729 16.23 22.3598C16.021 22.4466 15.8313 22.5739 15.6716 22.7343C15.5112 22.8939 15.3839 23.0837 15.2971 23.2927C15.2102 23.5017 15.1655 23.7258 15.1655 23.9521C15.1655 24.1784 15.2102 24.4025 15.2971 24.6115C15.3839 24.8205 15.5112 25.0103 15.6716 25.1699L21.8636 31.3619L21.9641 31.4624C22.1151 31.6137 22.2945 31.7338 22.492 31.8157C22.6894 31.8976 22.9011 31.9397 23.1149 31.9397C23.3287 31.9397 23.5404 31.8976 23.7378 31.8157C23.9353 31.7338 24.1147 31.6137 24.2657 31.4624L34.9606 20.7676C35.1119 20.6166 35.2319 20.4372 35.3138 20.2397C35.3957 20.0422 35.4379 19.8305 35.4379 19.6168C35.4379 19.403 35.3957 19.1913 35.3138 18.9938C35.2319 18.7963 35.1119 18.6169 34.9606 18.4659L34.8266 18.3319C34.6755 18.1806 34.4962 18.0606 34.2987 17.9787C34.1012 17.8968 33.8895 17.8546 33.6757 17.8546C33.462 17.8546 33.2503 17.8968 33.0528 17.9787C32.8553 18.0606 32.6759 18.1806 32.5249 18.3319L23.1125 27.7396L18.1072 22.7343Z" fill="#277868"/>
</svg>
