<svg width="16" height="16" viewBox="0 0 16 16" fill="none" xmlns="http://www.w3.org/2000/svg">
<g clip-path="url(#clip0_337_1760)">
<path d="M15.8552 0.14615C15.9244 0.215482 15.9717 0.303624 15.9913 0.399627C16.0108 0.49563 16.0017 0.595263 15.9652 0.68615L10.1462 15.2331C10.0949 15.3613 10.0092 15.4727 9.89868 15.5553C9.78813 15.6379 9.65693 15.6884 9.51954 15.7012C9.38214 15.714 9.24387 15.6887 9.11995 15.628C8.99602 15.5673 8.89125 15.4736 8.81715 15.3572L5.63915 10.3622L0.644152 7.18415C0.52747 7.11013 0.433504 7.00532 0.372622 6.88128C0.311741 6.75723 0.28631 6.61878 0.299137 6.4812C0.311964 6.34362 0.36255 6.21226 0.445313 6.10161C0.528076 5.99096 0.639799 5.90532 0.768152 5.85415L15.3152 0.0371498C15.406 0.000562027 15.5057 -0.0085177 15.6017 0.0110385C15.6977 0.0305947 15.7858 0.0779249 15.8552 0.14715V0.14615ZM6.63715 10.0701L9.39815 14.4081L14.1312 2.57615L6.63715 10.0701ZM13.4242 1.86915L1.59215 6.60215L5.93115 9.36215L13.4252 1.86915H13.4242Z" fill="white"/>
</g>
<defs>
<clipPath id="clip0_337_1760">
<rect width="16" height="16" fill="white" transform="translate(0.000976562)"/>
</clipPath>
</defs>
</svg>
