<svg width="31" height="29" viewBox="0 0 31 29" fill="none" xmlns="http://www.w3.org/2000/svg">
<path d="M13.752 1.72818C13.9037 1.42456 14.1384 1.16888 14.4297 0.990095C14.721 0.811309 15.0572 0.716553 15.4002 0.716553C15.7432 0.716553 16.0794 0.811309 16.3707 0.990095C16.662 1.16888 16.8967 1.42456 17.0484 1.72818L20.5946 8.81723L28.5268 9.95583C28.8662 10.0045 29.185 10.1458 29.4472 10.364C29.7094 10.5821 29.9044 10.8682 30.0104 11.1901C30.1163 11.5119 30.1288 11.8566 30.0465 12.1851C29.9642 12.5136 29.7904 12.8128 29.5448 13.0489L23.8046 18.5678L25.1606 26.364C25.2185 26.6974 25.1807 27.0402 25.0515 27.3535C24.9223 27.6668 24.7068 27.9382 24.4295 28.1371C24.1521 28.3359 23.8239 28.4541 23.4819 28.4785C23.14 28.5029 22.798 28.4324 22.4945 28.2749L15.402 24.5944L8.30586 28.2749C8.00232 28.432 7.66031 28.5022 7.31846 28.4775C6.97662 28.4529 6.64859 28.3343 6.37143 28.1354C6.09428 27.9364 5.87905 27.6649 5.75008 27.3515C5.6211 27.0382 5.58352 26.6955 5.64159 26.3622L6.99577 18.5678L1.25563 13.0489C1.00996 12.8128 0.836154 12.5136 0.753871 12.1851C0.671588 11.8566 0.684113 11.5119 0.790032 11.1901C0.89595 10.8682 1.09103 10.5821 1.35321 10.364C1.61539 10.1458 1.9342 10.0045 2.27357 9.95583L10.2058 8.81904L13.752 1.72637V1.72818ZM15.4002 2.52955L11.8539 9.62041C11.7221 9.88401 11.5272 10.112 11.2862 10.2848C11.0452 10.4576 10.7652 10.5699 10.4704 10.6122L2.53632 11.7508L8.27647 17.2697C8.48956 17.475 8.6489 17.7282 8.74077 18.0078C8.83263 18.2873 8.85427 18.5846 8.80381 18.8742L7.44962 26.6704L14.5421 22.9899C14.8059 22.853 15.0994 22.7815 15.3974 22.7815C15.6955 22.7815 15.989 22.853 16.2528 22.9899L23.3471 26.6704L21.9929 18.8742C21.9424 18.5846 21.9641 18.2873 22.0559 18.0078C22.1478 17.7282 22.3072 17.475 22.5202 17.2697L28.2604 11.7508L20.3282 10.6122C20.0337 10.5696 19.7541 10.4572 19.5134 10.2844C19.2727 10.1116 19.0781 9.88378 18.9464 9.62041L15.4002 2.52955Z" fill="white"/>
</svg>
